<mxfile host="app.diagrams.net" modified="2023-06-23T18:59:09.112Z" agent="Mozilla/5.0 (Windows NT 10.0; Win64; x64; rv:109.0) Gecko/20100101 Firefox/114.0" etag="XRcAKPkII7-EXN8pno26" version="21.5.0" type="github" pages="2">
  <diagram name="Manage Wallet" id="5awPg63cm1WxTuEfacTO">
    <mxGraphModel dx="1687" dy="869" grid="1" gridSize="10" guides="1" tooltips="1" connect="1" arrows="1" fold="1" page="1" pageScale="1" pageWidth="850" pageHeight="1100" math="0" shadow="0">
      <root>
        <mxCell id="0" />
        <mxCell id="1" parent="0" />
        <mxCell id="SbcOwOxzpZEelkeXSqEC-37" style="edgeStyle=orthogonalEdgeStyle;rounded=0;orthogonalLoop=1;jettySize=auto;html=1;entryX=0;entryY=0.5;entryDx=0;entryDy=0;entryPerimeter=0;" parent="1" source="FrukhPSYihNenCoK6i-r-1" target="FrukhPSYihNenCoK6i-r-5" edge="1">
          <mxGeometry relative="1" as="geometry">
            <Array as="points">
              <mxPoint x="630" y="73" />
            </Array>
          </mxGeometry>
        </mxCell>
        <mxCell id="SbcOwOxzpZEelkeXSqEC-61" value="" style="edgeStyle=orthogonalEdgeStyle;rounded=0;orthogonalLoop=1;jettySize=auto;html=1;" parent="1" source="FrukhPSYihNenCoK6i-r-1" target="SbcOwOxzpZEelkeXSqEC-60" edge="1">
          <mxGeometry relative="1" as="geometry" />
        </mxCell>
        <mxCell id="FrukhPSYihNenCoK6i-r-1" value="Manage Wallet" style="rounded=0;whiteSpace=wrap;html=1;" parent="1" vertex="1">
          <mxGeometry x="590" y="130" width="80" height="50" as="geometry" />
        </mxCell>
        <mxCell id="FrukhPSYihNenCoK6i-r-3" value="&lt;div&gt;User&lt;/div&gt;" style="strokeWidth=2;html=1;shape=mxgraph.flowchart.terminator;whiteSpace=wrap;" parent="1" vertex="1">
          <mxGeometry x="579" y="1" width="100" height="60" as="geometry" />
        </mxCell>
        <mxCell id="FrukhPSYihNenCoK6i-r-4" value="" style="endArrow=classic;html=1;rounded=0;" parent="1" source="FrukhPSYihNenCoK6i-r-3" target="FrukhPSYihNenCoK6i-r-1" edge="1">
          <mxGeometry width="50" height="50" relative="1" as="geometry">
            <mxPoint x="560" y="410" as="sourcePoint" />
            <mxPoint x="610" y="360" as="targetPoint" />
          </mxGeometry>
        </mxCell>
        <mxCell id="FrukhPSYihNenCoK6i-r-5" value="Option Pera, Defly, and Wallet connect" style="strokeWidth=2;html=1;shape=mxgraph.flowchart.display;whiteSpace=wrap;" parent="1" vertex="1">
          <mxGeometry x="820" y="40" width="100" height="65" as="geometry" />
        </mxCell>
        <mxCell id="FrukhPSYihNenCoK6i-r-10" value="" style="edgeStyle=orthogonalEdgeStyle;rounded=0;orthogonalLoop=1;jettySize=auto;html=1;" parent="1" source="FrukhPSYihNenCoK6i-r-7" target="FrukhPSYihNenCoK6i-r-9" edge="1">
          <mxGeometry relative="1" as="geometry" />
        </mxCell>
        <mxCell id="FrukhPSYihNenCoK6i-r-7" value="Connect the wallet" style="whiteSpace=wrap;html=1;rounded=0;" parent="1" vertex="1">
          <mxGeometry x="297" y="276" width="120" height="60" as="geometry" />
        </mxCell>
        <mxCell id="E4sIAeBZLGeyQQshyGdQ-7" value="" style="edgeStyle=orthogonalEdgeStyle;rounded=0;orthogonalLoop=1;jettySize=auto;html=1;" parent="1" source="FrukhPSYihNenCoK6i-r-9" target="E4sIAeBZLGeyQQshyGdQ-6" edge="1">
          <mxGeometry relative="1" as="geometry">
            <mxPoint x="257" y="426" as="targetPoint" />
          </mxGeometry>
        </mxCell>
        <mxCell id="E4sIAeBZLGeyQQshyGdQ-9" value="" style="edgeStyle=orthogonalEdgeStyle;rounded=0;orthogonalLoop=1;jettySize=auto;html=1;" parent="1" source="FrukhPSYihNenCoK6i-r-9" target="E4sIAeBZLGeyQQshyGdQ-8" edge="1">
          <mxGeometry relative="1" as="geometry" />
        </mxCell>
        <mxCell id="FrukhPSYihNenCoK6i-r-9" value="IF" style="rhombus;whiteSpace=wrap;html=1;rounded=0;" parent="1" vertex="1">
          <mxGeometry x="317" y="386" width="80" height="80" as="geometry" />
        </mxCell>
        <mxCell id="E4sIAeBZLGeyQQshyGdQ-6" value="Wallet is not connected" style="whiteSpace=wrap;html=1;rounded=0;" parent="1" vertex="1">
          <mxGeometry x="110" y="396" width="120" height="60" as="geometry" />
        </mxCell>
        <mxCell id="E4sIAeBZLGeyQQshyGdQ-11" value="" style="edgeStyle=orthogonalEdgeStyle;rounded=0;orthogonalLoop=1;jettySize=auto;html=1;" parent="1" source="E4sIAeBZLGeyQQshyGdQ-8" target="E4sIAeBZLGeyQQshyGdQ-10" edge="1">
          <mxGeometry relative="1" as="geometry" />
        </mxCell>
        <mxCell id="E4sIAeBZLGeyQQshyGdQ-8" value="Wallet is connected and set to active" style="whiteSpace=wrap;html=1;rounded=0;" parent="1" vertex="1">
          <mxGeometry x="297" y="556" width="120" height="60" as="geometry" />
        </mxCell>
        <mxCell id="E4sIAeBZLGeyQQshyGdQ-13" value="" style="edgeStyle=orthogonalEdgeStyle;rounded=0;orthogonalLoop=1;jettySize=auto;html=1;" parent="1" source="E4sIAeBZLGeyQQshyGdQ-10" target="E4sIAeBZLGeyQQshyGdQ-12" edge="1">
          <mxGeometry relative="1" as="geometry" />
        </mxCell>
        <mxCell id="E4sIAeBZLGeyQQshyGdQ-15" value="" style="edgeStyle=orthogonalEdgeStyle;rounded=0;orthogonalLoop=1;jettySize=auto;html=1;" parent="1" source="E4sIAeBZLGeyQQshyGdQ-10" target="E4sIAeBZLGeyQQshyGdQ-14" edge="1">
          <mxGeometry relative="1" as="geometry" />
        </mxCell>
        <mxCell id="E4sIAeBZLGeyQQshyGdQ-10" value="IF" style="rhombus;whiteSpace=wrap;html=1;rounded=0;" parent="1" vertex="1">
          <mxGeometry x="317" y="686" width="80" height="80" as="geometry" />
        </mxCell>
        <mxCell id="E4sIAeBZLGeyQQshyGdQ-12" value="Add Account page with empty sidebar panel" style="whiteSpace=wrap;html=1;rounded=0;" parent="1" vertex="1">
          <mxGeometry x="110" y="696" width="110" height="60" as="geometry" />
        </mxCell>
        <mxCell id="E4sIAeBZLGeyQQshyGdQ-14" value="Displays the safe manu" style="whiteSpace=wrap;html=1;rounded=0;" parent="1" vertex="1">
          <mxGeometry x="297" y="856" width="120" height="60" as="geometry" />
        </mxCell>
        <mxCell id="E4sIAeBZLGeyQQshyGdQ-16" value="Confirm" style="text;html=1;align=center;verticalAlign=middle;resizable=0;points=[];autosize=1;strokeColor=none;fillColor=none;" parent="1" vertex="1">
          <mxGeometry x="290" y="486" width="70" height="30" as="geometry" />
        </mxCell>
        <mxCell id="E4sIAeBZLGeyQQshyGdQ-17" value="Reject" style="text;html=1;align=center;verticalAlign=middle;resizable=0;points=[];autosize=1;strokeColor=none;fillColor=none;" parent="1" vertex="1">
          <mxGeometry x="251" y="395" width="60" height="30" as="geometry" />
        </mxCell>
        <mxCell id="SbcOwOxzpZEelkeXSqEC-2" value="Have a Safe " style="text;html=1;align=center;verticalAlign=middle;resizable=0;points=[];autosize=1;strokeColor=none;fillColor=none;" parent="1" vertex="1">
          <mxGeometry x="360" y="796" width="90" height="30" as="geometry" />
        </mxCell>
        <mxCell id="SbcOwOxzpZEelkeXSqEC-3" value="No Have a Safe " style="text;html=1;align=center;verticalAlign=middle;resizable=0;points=[];autosize=1;strokeColor=none;fillColor=none;" parent="1" vertex="1">
          <mxGeometry x="220" y="686" width="110" height="30" as="geometry" />
        </mxCell>
        <mxCell id="SbcOwOxzpZEelkeXSqEC-62" style="edgeStyle=orthogonalEdgeStyle;rounded=0;orthogonalLoop=1;jettySize=auto;html=1;" parent="1" source="SbcOwOxzpZEelkeXSqEC-60" target="FrukhPSYihNenCoK6i-r-7" edge="1">
          <mxGeometry relative="1" as="geometry" />
        </mxCell>
        <mxCell id="SbcOwOxzpZEelkeXSqEC-64" style="edgeStyle=orthogonalEdgeStyle;rounded=0;orthogonalLoop=1;jettySize=auto;html=1;entryX=0;entryY=0.5;entryDx=0;entryDy=0;" parent="1" source="SbcOwOxzpZEelkeXSqEC-60" target="SbcOwOxzpZEelkeXSqEC-63" edge="1">
          <mxGeometry relative="1" as="geometry" />
        </mxCell>
        <mxCell id="SbcOwOxzpZEelkeXSqEC-60" value="IF" style="rhombus;whiteSpace=wrap;html=1;rounded=0;" parent="1" vertex="1">
          <mxGeometry x="590" y="266" width="80" height="80" as="geometry" />
        </mxCell>
        <mxCell id="SbcOwOxzpZEelkeXSqEC-66" value="" style="edgeStyle=orthogonalEdgeStyle;rounded=0;orthogonalLoop=1;jettySize=auto;html=1;" parent="1" source="SbcOwOxzpZEelkeXSqEC-63" target="SbcOwOxzpZEelkeXSqEC-65" edge="1">
          <mxGeometry relative="1" as="geometry" />
        </mxCell>
        <mxCell id="SbcOwOxzpZEelkeXSqEC-63" value="Displays wallet account" style="whiteSpace=wrap;html=1;rounded=0;" parent="1" vertex="1">
          <mxGeometry x="870" y="276" width="120" height="60" as="geometry" />
        </mxCell>
        <mxCell id="SbcOwOxzpZEelkeXSqEC-68" value="" style="edgeStyle=orthogonalEdgeStyle;rounded=0;orthogonalLoop=1;jettySize=auto;html=1;" parent="1" source="SbcOwOxzpZEelkeXSqEC-65" target="SbcOwOxzpZEelkeXSqEC-67" edge="1">
          <mxGeometry relative="1" as="geometry" />
        </mxCell>
        <mxCell id="SbcOwOxzpZEelkeXSqEC-70" value="" style="edgeStyle=orthogonalEdgeStyle;rounded=0;orthogonalLoop=1;jettySize=auto;html=1;" parent="1" source="SbcOwOxzpZEelkeXSqEC-65" target="SbcOwOxzpZEelkeXSqEC-69" edge="1">
          <mxGeometry relative="1" as="geometry" />
        </mxCell>
        <mxCell id="SbcOwOxzpZEelkeXSqEC-65" value="IF" style="rhombus;whiteSpace=wrap;html=1;rounded=0;" parent="1" vertex="1">
          <mxGeometry x="1050" y="266" width="80" height="80" as="geometry" />
        </mxCell>
        <mxCell id="SbcOwOxzpZEelkeXSqEC-79" value="" style="edgeStyle=orthogonalEdgeStyle;rounded=0;orthogonalLoop=1;jettySize=auto;html=1;" parent="1" source="SbcOwOxzpZEelkeXSqEC-67" target="SbcOwOxzpZEelkeXSqEC-78" edge="1">
          <mxGeometry relative="1" as="geometry" />
        </mxCell>
        <mxCell id="SbcOwOxzpZEelkeXSqEC-67" value="Display Disconnect function" style="rounded=0;whiteSpace=wrap;html=1;" parent="1" vertex="1">
          <mxGeometry x="1280" y="276" width="120" height="60" as="geometry" />
        </mxCell>
        <mxCell id="SbcOwOxzpZEelkeXSqEC-77" value="" style="edgeStyle=orthogonalEdgeStyle;rounded=0;orthogonalLoop=1;jettySize=auto;html=1;" parent="1" source="SbcOwOxzpZEelkeXSqEC-69" target="SbcOwOxzpZEelkeXSqEC-76" edge="1">
          <mxGeometry relative="1" as="geometry" />
        </mxCell>
        <mxCell id="SbcOwOxzpZEelkeXSqEC-69" value="Set Active" style="whiteSpace=wrap;html=1;rounded=0;" parent="1" vertex="1">
          <mxGeometry x="1030" y="436" width="120" height="60" as="geometry" />
        </mxCell>
        <mxCell id="SbcOwOxzpZEelkeXSqEC-72" value="Wallet is not connected" style="text;html=1;align=center;verticalAlign=middle;resizable=0;points=[];autosize=1;strokeColor=none;fillColor=none;" parent="1" vertex="1">
          <mxGeometry x="429" y="266" width="150" height="30" as="geometry" />
        </mxCell>
        <mxCell id="SbcOwOxzpZEelkeXSqEC-73" value="Wallet is connected" style="text;html=1;align=center;verticalAlign=middle;resizable=0;points=[];autosize=1;strokeColor=none;fillColor=none;" parent="1" vertex="1">
          <mxGeometry x="701" y="276" width="130" height="30" as="geometry" />
        </mxCell>
        <mxCell id="SbcOwOxzpZEelkeXSqEC-74" value="Status Active" style="text;html=1;align=center;verticalAlign=middle;resizable=0;points=[];autosize=1;strokeColor=none;fillColor=none;" parent="1" vertex="1">
          <mxGeometry x="1150" y="266" width="90" height="30" as="geometry" />
        </mxCell>
        <mxCell id="SbcOwOxzpZEelkeXSqEC-75" value="Status Non Active" style="text;html=1;align=center;verticalAlign=middle;resizable=0;points=[];autosize=1;strokeColor=none;fillColor=none;" parent="1" vertex="1">
          <mxGeometry x="1090" y="365" width="120" height="30" as="geometry" />
        </mxCell>
        <mxCell id="SbcOwOxzpZEelkeXSqEC-76" value="Status is Actived" style="whiteSpace=wrap;html=1;rounded=0;" parent="1" vertex="1">
          <mxGeometry x="1030" y="576" width="120" height="60" as="geometry" />
        </mxCell>
        <mxCell id="SbcOwOxzpZEelkeXSqEC-78" value="The Connection is Disconnected and display connect status" style="whiteSpace=wrap;html=1;rounded=0;" parent="1" vertex="1">
          <mxGeometry x="1480" y="276" width="120" height="60" as="geometry" />
        </mxCell>
      </root>
    </mxGraphModel>
  </diagram>
  <diagram id="fyu44ev1ghskN56KDaU9" name="Create new Safe">
    <mxGraphModel dx="1195" dy="616" grid="1" gridSize="10" guides="1" tooltips="1" connect="1" arrows="1" fold="1" page="1" pageScale="1" pageWidth="850" pageHeight="1100" math="0" shadow="0">
      <root>
        <mxCell id="0" />
        <mxCell id="1" parent="0" />
        <mxCell id="-hH9Fs46Qcf0c_BuP5_e-6" value="" style="edgeStyle=orthogonalEdgeStyle;rounded=0;orthogonalLoop=1;jettySize=auto;html=1;" edge="1" parent="1" source="EJD0vCWCPu-LAFwcsbmk-3" target="-hH9Fs46Qcf0c_BuP5_e-5">
          <mxGeometry relative="1" as="geometry" />
        </mxCell>
        <mxCell id="EJD0vCWCPu-LAFwcsbmk-3" value="User" style="strokeWidth=2;html=1;shape=mxgraph.flowchart.terminator;whiteSpace=wrap;" vertex="1" parent="1">
          <mxGeometry x="380" y="10" width="75" height="50" as="geometry" />
        </mxCell>
        <mxCell id="-hH9Fs46Qcf0c_BuP5_e-8" value="" style="edgeStyle=orthogonalEdgeStyle;rounded=0;orthogonalLoop=1;jettySize=auto;html=1;" edge="1" parent="1" source="-hH9Fs46Qcf0c_BuP5_e-5" target="-hH9Fs46Qcf0c_BuP5_e-7">
          <mxGeometry relative="1" as="geometry" />
        </mxCell>
        <mxCell id="-hH9Fs46Qcf0c_BuP5_e-10" value="" style="edgeStyle=orthogonalEdgeStyle;rounded=0;orthogonalLoop=1;jettySize=auto;html=1;" edge="1" parent="1" source="-hH9Fs46Qcf0c_BuP5_e-5" target="-hH9Fs46Qcf0c_BuP5_e-9">
          <mxGeometry relative="1" as="geometry" />
        </mxCell>
        <mxCell id="-ZDD04rEkdSMOmTdYZ33-2" value="" style="edgeStyle=orthogonalEdgeStyle;rounded=0;orthogonalLoop=1;jettySize=auto;html=1;" edge="1" parent="1" source="-hH9Fs46Qcf0c_BuP5_e-5" target="-ZDD04rEkdSMOmTdYZ33-1">
          <mxGeometry relative="1" as="geometry" />
        </mxCell>
        <mxCell id="-hH9Fs46Qcf0c_BuP5_e-5" value="IF" style="rhombus;whiteSpace=wrap;html=1;strokeWidth=2;" vertex="1" parent="1">
          <mxGeometry x="377.5" y="110" width="80" height="80" as="geometry" />
        </mxCell>
        <mxCell id="-ZDD04rEkdSMOmTdYZ33-6" value="" style="edgeStyle=orthogonalEdgeStyle;rounded=0;orthogonalLoop=1;jettySize=auto;html=1;" edge="1" parent="1" source="-hH9Fs46Qcf0c_BuP5_e-7" target="-ZDD04rEkdSMOmTdYZ33-5">
          <mxGeometry relative="1" as="geometry" />
        </mxCell>
        <mxCell id="-hH9Fs46Qcf0c_BuP5_e-7" value="Access the Create Safe via add account" style="whiteSpace=wrap;html=1;strokeWidth=2;" vertex="1" parent="1">
          <mxGeometry x="357.5" y="260" width="120" height="60" as="geometry" />
        </mxCell>
        <mxCell id="-hH9Fs46Qcf0c_BuP5_e-9" value="Displays Connect Wallet btn" style="whiteSpace=wrap;html=1;strokeWidth=2;" vertex="1" parent="1">
          <mxGeometry x="640" y="120" width="120" height="60" as="geometry" />
        </mxCell>
        <mxCell id="-hH9Fs46Qcf0c_BuP5_e-11" value="Wallet is not connected" style="text;strokeColor=none;fillColor=none;align=left;verticalAlign=top;spacingLeft=4;spacingRight=4;overflow=hidden;rotatable=0;points=[[0,0.5],[1,0.5]];portConstraint=eastwest;whiteSpace=wrap;html=1;fontSize=12;" vertex="1" parent="1">
          <mxGeometry x="470" y="120" width="140" height="26" as="geometry" />
        </mxCell>
        <mxCell id="RGvslmPcz4QAWLR54-Pj-1" value="Wallet is connected with have a safe" style="text;strokeColor=none;fillColor=none;align=left;verticalAlign=top;spacingLeft=4;spacingRight=4;overflow=hidden;rotatable=0;points=[[0,0.5],[1,0.5]];portConstraint=eastwest;whiteSpace=wrap;html=1;" vertex="1" parent="1">
          <mxGeometry x="425" y="210" width="215" height="26" as="geometry" />
        </mxCell>
        <mxCell id="-ZDD04rEkdSMOmTdYZ33-7" style="edgeStyle=orthogonalEdgeStyle;rounded=0;orthogonalLoop=1;jettySize=auto;html=1;entryX=0;entryY=0.75;entryDx=0;entryDy=0;" edge="1" parent="1" source="-ZDD04rEkdSMOmTdYZ33-1" target="-ZDD04rEkdSMOmTdYZ33-5">
          <mxGeometry relative="1" as="geometry">
            <Array as="points">
              <mxPoint x="210" y="445" />
            </Array>
          </mxGeometry>
        </mxCell>
        <mxCell id="-ZDD04rEkdSMOmTdYZ33-1" value="Access the Create Safe via Homepage" style="whiteSpace=wrap;html=1;strokeWidth=2;" vertex="1" parent="1">
          <mxGeometry x="150" y="260" width="120" height="60" as="geometry" />
        </mxCell>
        <mxCell id="-ZDD04rEkdSMOmTdYZ33-3" value="with no a safe connection from the Homepage " style="text;strokeColor=none;fillColor=none;align=left;verticalAlign=top;spacingLeft=4;spacingRight=4;overflow=hidden;rotatable=0;points=[[0,0.5],[1,0.5]];portConstraint=eastwest;whiteSpace=wrap;html=1;" vertex="1" parent="1">
          <mxGeometry x="80" y="110" width="270" height="26" as="geometry" />
        </mxCell>
        <mxCell id="w59ss8TH4YG7nRdSjHMB-2" value="" style="edgeStyle=orthogonalEdgeStyle;rounded=0;orthogonalLoop=1;jettySize=auto;html=1;" edge="1" parent="1" source="-ZDD04rEkdSMOmTdYZ33-5" target="w59ss8TH4YG7nRdSjHMB-1">
          <mxGeometry relative="1" as="geometry" />
        </mxCell>
        <mxCell id="-ZDD04rEkdSMOmTdYZ33-5" value="Create New Safe Page" style="whiteSpace=wrap;html=1;strokeWidth=2;" vertex="1" parent="1">
          <mxGeometry x="357.5" y="400" width="120" height="60" as="geometry" />
        </mxCell>
        <mxCell id="w59ss8TH4YG7nRdSjHMB-4" value="" style="edgeStyle=orthogonalEdgeStyle;rounded=0;orthogonalLoop=1;jettySize=auto;html=1;" edge="1" parent="1" source="w59ss8TH4YG7nRdSjHMB-1" target="w59ss8TH4YG7nRdSjHMB-3">
          <mxGeometry relative="1" as="geometry" />
        </mxCell>
        <mxCell id="w59ss8TH4YG7nRdSjHMB-1" value="Name of the new Safe" style="whiteSpace=wrap;html=1;strokeWidth=2;" vertex="1" parent="1">
          <mxGeometry x="557.5" y="400" width="120" height="60" as="geometry" />
        </mxCell>
        <mxCell id="w59ss8TH4YG7nRdSjHMB-6" value="" style="edgeStyle=orthogonalEdgeStyle;rounded=0;orthogonalLoop=1;jettySize=auto;html=1;" edge="1" parent="1" source="w59ss8TH4YG7nRdSjHMB-3" target="w59ss8TH4YG7nRdSjHMB-5">
          <mxGeometry relative="1" as="geometry" />
        </mxCell>
        <mxCell id="w59ss8TH4YG7nRdSjHMB-11" value="" style="edgeStyle=orthogonalEdgeStyle;rounded=0;orthogonalLoop=1;jettySize=auto;html=1;" edge="1" parent="1" source="w59ss8TH4YG7nRdSjHMB-3" target="w59ss8TH4YG7nRdSjHMB-10">
          <mxGeometry relative="1" as="geometry">
            <Array as="points">
              <mxPoint x="818" y="340" />
            </Array>
          </mxGeometry>
        </mxCell>
        <mxCell id="w59ss8TH4YG7nRdSjHMB-3" value="IF" style="rhombus;whiteSpace=wrap;html=1;strokeWidth=2;" vertex="1" parent="1">
          <mxGeometry x="777.5" y="390" width="80" height="80" as="geometry" />
        </mxCell>
        <mxCell id="w59ss8TH4YG7nRdSjHMB-5" value="Show Error: Safe name should be between 4 to 15 characters long." style="whiteSpace=wrap;html=1;strokeWidth=2;" vertex="1" parent="1">
          <mxGeometry x="990" y="400" width="150" height="60" as="geometry" />
        </mxCell>
        <mxCell id="w59ss8TH4YG7nRdSjHMB-9" value="Character Less than 5" style="text;strokeColor=none;fillColor=none;align=left;verticalAlign=top;spacingLeft=4;spacingRight=4;overflow=hidden;rotatable=0;points=[[0,0.5],[1,0.5]];portConstraint=eastwest;whiteSpace=wrap;html=1;" vertex="1" parent="1">
          <mxGeometry x="840" y="444" width="140" height="26" as="geometry" />
        </mxCell>
        <mxCell id="w59ss8TH4YG7nRdSjHMB-10" value="Show Error: Only alphanumeric characters, underscores or dashes are allowed" style="whiteSpace=wrap;html=1;strokeWidth=2;" vertex="1" parent="1">
          <mxGeometry x="990" y="310" width="150" height="60" as="geometry" />
        </mxCell>
        <mxCell id="w59ss8TH4YG7nRdSjHMB-12" value="has a unique character" style="text;strokeColor=none;fillColor=none;align=left;verticalAlign=top;spacingLeft=4;spacingRight=4;overflow=hidden;rotatable=0;points=[[0,0.5],[1,0.5]];portConstraint=eastwest;whiteSpace=wrap;html=1;" vertex="1" parent="1">
          <mxGeometry x="830" y="300" width="140" height="26" as="geometry" />
        </mxCell>
      </root>
    </mxGraphModel>
  </diagram>
</mxfile>
